<?xml version="1.0" encoding="UTF-8"?><svg id="uuid-ad63385f-f8c4-4359-bb29-53bc399b3580" xmlns="http://www.w3.org/2000/svg" viewBox="0 0 305 83.9912"><g id="uuid-7b51bea8-8ca1-4ccd-88dc-a090db4e8cd9"><g><path d="m12.0234,40.8296h15.5303l-.4453,5.7334H4.0078V10.4927h8.0156v30.3369-.0557.0557Z" style="fill:#fff;"/><path d="m61.8984,10.4927v36.0703h-5.2324l-15.5303-20.0391c-.8169-1.0386-1.3916-2.0596-1.7256-3.0615v23.1006h-6.6797V10.4927h5.0654l15.5859,20.0947c.9272,1.1133,1.5396,2.1343,1.8369,3.0615V10.4927h6.6797v-.0557.0557Z" style="fill:#fff;"/><path d="m93.0146,33.0366c-2.5239,1.4849-5.8447,2.2085-9.9639,2.1709h-4.6758v11.3555h-8.0156v-30.2812h-3.4512v-5.7334h14.8066c4.6758-.1479,8.4609.52,11.3555,2.0039,3.3398,1.7075,5.0464,5.0654,5.1211,10.0752-.0376,5.0098-1.7632,8.48-5.1768,10.4092Zm-3.0615-10.2422c.0366-2.4116-.7427-4.1748-2.3379-5.2881-1.2622-.8906-3.1729-1.2983-5.7334-1.2246h-3.5068v13.415h3.6182c2.5605.0376,4.5269-.4263,5.9004-1.3916,1.3726-1.002,2.0596-2.8389,2.0596-5.5107v-.0557.0557Z" style="fill:#fff;"/><path d="m134.5957,46.563h-8.2383l-2.4492-7.3477h-12.9697l-2.2266,7.3477h-7.793l9.9639-30.5039h-3.3398v-5.5664h14.0273l13.0254,36.0703Zm-22.043-12.6914h9.5742l-3.9521-11.6895c-.5566-1.5952-.9097-3.0796-1.0576-4.4531h-.0557c-.1113,1.2622-.4272,2.7275-.9463,4.3975l-3.5625,11.7451v-.0557.0557Z" style="fill:#fff;"/><path d="m160.5908,10.4927h7.793l-12.5801,23.6572v12.4131h-8.0156v-12.5244l-12.4688-23.5459h8.8506l6.9023,13.5264c.7793,1.4106,1.2612,2.7466,1.4473,4.0078h.0557c.1479-1.1499.5933-2.4492,1.3359-3.8965l6.6797-13.6377v-.0557.0557Z" style="fill:#fff;"/><path d="m202.5615,45.8394c-1.2246.7056-2.7832,1.0942-4.6758,1.1689-1.9678,0-3.5068-.4087-4.6201-1.2246s-2.1348-2.0596-3.0615-3.7295l-4.8984-8.1826h-4.2861v12.6914h-8.0156v-30.2812h-3.4512v-5.7334h15.9199c4.8237-.0366,8.4053.7236,10.7432,2.2822,3.042,2.0039,4.583,5.0098,4.6201,9.0176-.1484,5.7524-2.5605,9.4263-7.2363,11.0215l4.1191,6.958c.668,1.2246,1.5391,1.8003,2.6162,1.7256,1.002-.0737,1.8926-.3521,2.6719-.835l-.4453,5.1211Zm-9.9082-23.4346c0-2.0776-.5205-3.6182-1.5586-4.6201-1.188-1.0757-3.2661-1.5767-6.2344-1.5029h-3.8408v12.4688h4.9541c4.6011-.0366,6.8271-2.1519,6.6797-6.3457v-.0557.0557Z" style="fill:#fff;"/><path d="m234.1787,42.0542c-2.6357,3.3774-6.5879,5.1021-11.8564,5.1768-5.2695-.0747-9.2217-1.7993-11.8564-5.1768-2.6357-3.3765-3.9521-7.8853-3.9521-13.5264s1.3164-10.1489,3.9521-13.5264c2.6348-3.3398,6.5869-5.0464,11.8564-5.1211,5.2686.0747,9.2207,1.7812,11.8564,5.1211,2.6348,3.3774,3.9521,7.8862,3.9521,13.5264s-1.3174,10.1499-3.9521,13.5264Zm-4.5088-13.5264c-.1865-8.5723-2.6357-12.728-7.3477-12.4688-4.7129-.2593-7.1621,3.8965-7.3477,12.4688.1855,8.6099,2.6348,12.7847,7.3477,12.5244,4.7119.2603,7.1611-3.9146,7.3477-12.5244v-.0557.0557Z" style="fill:#fff;"/><path d="m252.2139,40.8296h15.5303l-.4453,5.7334h-23.1006V10.4927h8.0156v30.3369-.0557.0557Z" style="fill:#fff;"/><path d="m280.9365,40.8296h15.5303l-.4453,5.7334h-23.1006V10.4927h8.0156v30.3369-.0557.0557Z" style="fill:#fff;"/><path d="m3.7969,66.3525h5.1152l-.1582,1.8105H1.2656v-11.373h7.2422v1.8105H3.7969v2.9004h3.8145v1.8105h-3.8145v3.041-.0176.0176Z" style="fill:#fff;"/><path d="m23.8887,62.5381v5.625h-2.3906v-5.2734c.0352-.5273-.0527-.9492-.2637-1.2656-.2461-.3047-.6094-.4629-1.0898-.4746-.5156.0117-.9023.1875-1.1602.5273s-.3809.8379-.3691,1.4941v4.9922h-2.3906v-5.2734c.0352-.5273-.0527-.9492-.2637-1.2656-.2461-.3047-.6094-.4629-1.0898-.4746-.5156.0117-.9023.1875-1.1602.5273s-.3809.8379-.3691,1.4941v4.9922h-2.3906v-6.9609h-1.0371v-1.7227h2.4609l.4395,1.1426c.5039-.8086,1.418-1.2422,2.7422-1.3008,1.1484-.0352,2.0215.3633,2.6191,1.1953.5273-.7383,1.4121-1.1367,2.6543-1.1953,1.1953.0117,2.0508.3809,2.5664,1.1074.3398.457.5039,1.1602.4922,2.1094v-.0176.0176Z" style="fill:#fff;"/><path d="m33.1875,67.3896c-.7266.6094-1.7285.9141-3.0059.9141l-1.4062-.123v3.5684h-2.3906v-10.5469h-1.0371v-1.7227h2.4961l.4746,1.1602c.6094-.8672,1.5117-1.3066,2.707-1.3184,1.2188.0117,2.1094.416,2.6719,1.2129.5742.7852.8555,1.8457.8438,3.1816.0234,1.5938-.4277,2.8184-1.3535,3.6738Zm-1.0371-3.6035c.0234-1.7695-.5625-2.6602-1.7578-2.6719-.5508,0-.9727.1934-1.2656.5801-.2578.3398-.375.832-.3516,1.4766v3.4453l1.1953.1406c.832-.0117,1.4062-.2754,1.7227-.791.3281-.5273.4805-1.2539.457-2.1797v-.0176.0176Z" style="fill:#fff;"/><path d="m39.8848,66.4932l-.0703,1.3711c-.375.2578-.9023.4043-1.582.4395-.7383,0-1.248-.2051-1.5293-.6152-.2344-.3398-.3457-.8086-.334-1.4062v-8.7188h-1.0371v-1.7051h3.4277v10.3184c0,.375.1465.5566.4395.5449.2578-.0234.4863-.0996.6855-.2285v-.0176.0176Z" style="fill:#fff;"/><path d="m48.5508,67.0908c-.7266.7969-1.7754,1.2012-3.1465,1.2129-1.3711-.0117-2.4141-.416-3.1289-1.2129-.7148-.7852-1.0781-1.875-1.0898-3.2695.0117-1.3945.375-2.4902,1.0898-3.2871s1.7578-1.2012,3.1289-1.2129c1.3711.0117,2.4199.416,3.1465,1.2129.7148.7969,1.0723,1.8926,1.0723,3.2871s-.3574,2.4844-1.0723,3.2695Zm-1.3184-3.2695c-.0469-1.9805-.6562-2.9238-1.8281-2.8301-1.1719-.0938-1.7812.8496-1.8281,2.8301.0117,1.0195.1758,1.7461.4922,2.1797.3281.4336.7734.6445,1.3359.6328.5742.0117,1.0195-.1992,1.3359-.6328.3281-.4336.4922-1.1602.4922-2.1797v-.0176.0176Z" style="fill:#fff;"/><path d="m59.0625,59.4443v8.3672c.0234,1.3945-.252,2.3906-.8262,2.9883-.6797.7852-1.7578,1.1719-3.2344,1.1602l-1.793-.2109c-.5977-.1406-1.1133-.3281-1.5469-.5625l.1406-1.7754c.8906.5156,1.8457.7852,2.8652.8086.668,0,1.1719-.1582,1.5117-.4746.3516-.3164.5156-.8848.4922-1.7051v-.4746c-.5742.457-1.3242.7031-2.25.7383-1.0547,0-1.8574-.2871-2.4082-.8613-.5273-.5859-.7793-1.3652-.7559-2.3379v-5.6602h2.3906v5.291c-.0234.5508.0762.9727.2988,1.2656.2344.3164.6152.4805,1.1426.4922.5742-.0234.9844-.2109,1.2305-.5625.2578-.3633.375-.8672.3516-1.5117v-4.9746h2.3906v-.0176.0176Z" style="fill:#fff;"/><path d="m67.7813,64.5771h-4.5703c.2109,1.3711,1.0078,2.0508,2.3906,2.0391,1.0781-.0234,2.0391-.3105,2.8828-.8613l-.1055,1.6348c-.9141.6094-2.0039.9141-3.2695.9141-1.4062-.0117-2.4785-.4219-3.2168-1.2305-.7266-.7969-1.0957-1.8809-1.1074-3.252.0234-1.4297.4043-2.5371,1.1426-3.3223.7266-.7852,1.7109-1.1836,2.9531-1.1953,1.2188.0234,2.1855.3867,2.9004,1.0898s1.0781,1.6582,1.0898,2.8652c.0469.9141-.3164,1.3535-1.0898,1.3184Zm-1.2305-1.5645c-.0352-1.3594-.5918-2.0566-1.6699-2.0918-.9961-.0352-1.5645.7207-1.7051,2.2676h3.2168c.1172,0,.1699-.0586.1582-.1758v-.0176.0176Z" style="fill:#fff;"/><path d="m77.0625,64.5771h-4.5703c.2109,1.3711,1.0078,2.0508,2.3906,2.0391,1.0781-.0234,2.0391-.3105,2.8828-.8613l-.1055,1.6348c-.9141.6094-2.0039.9141-3.2695.9141-1.4062-.0117-2.4785-.4219-3.2168-1.2305-.7266-.7969-1.0957-1.8809-1.1074-3.252.0234-1.4297.4043-2.5371,1.1426-3.3223.7266-.7852,1.7109-1.1836,2.9531-1.1953,1.2188.0234,2.1855.3867,2.9004,1.0898s1.0781,1.6582,1.0898,2.8652c.0469.9141-.3164,1.3535-1.0898,1.3184Zm-1.2305-1.5645c-.0352-1.3594-.5918-2.0566-1.6699-2.0918-.9961-.0352-1.5645.7207-1.7051,2.2676h3.2168c.1172,0,.1699-.0586.1582-.1758v-.0176.0176Z" style="fill:#fff;"/><path d="m91.5469,63.8916c-.7969.4688-1.8457.6973-3.1465.6855h-1.4766v3.5859h-2.5312v-9.5625h-1.0898v-1.8105h4.6758c1.4766-.0469,2.6719.1641,3.5859.6328,1.0547.5391,1.5938,1.5996,1.6172,3.1816-.0117,1.582-.5566,2.6777-1.6348,3.2871Zm-.9668-3.2344c.0117-.7617-.2344-1.3184-.7383-1.6699-.3984-.2812-1.002-.4102-1.8105-.3867h-1.1074v4.2363h1.1426c.8086.0117,1.4297-.1348,1.8633-.4395.4336-.3164.6504-.8965.6504-1.7402v-.0176.0176Z" style="fill:#fff;"/><path d="m103.0781,67.7939c-.3984.2812-.9316.4336-1.5996.457-.7852,0-1.3008-.3164-1.5469-.9492-.5391.6445-1.3359.9785-2.3906,1.002-.9375-.0117-1.6875-.2637-2.25-.7559-.5508-.5039-.832-1.2188-.8438-2.1445.0117-.9492.3223-1.6758.9316-2.1797.6094-.4922,1.4355-.7383,2.4785-.7383.6914.0117,1.2891.1055,1.793.2812v-.2285c.0234-.5391-.0879-.9492-.334-1.2305-.2812-.293-.7793-.4453-1.4941-.457-.8789,0-1.7461.2109-2.6016.6328v-1.5996c.8555-.375,1.8516-.5684,2.9883-.5801,1.3828-.0117,2.4023.293,3.0586.9141.5273.4922.7852,1.2305.7734,2.2148v3.6738c0,.3516.1406.5273.4219.5273.2695-.0234.5039-.0996.7031-.2285l-.0879,1.3887Zm-3.4277-2.5488v-1.1602c-.3281-.1289-.7441-.1992-1.248-.2109-1.0547.0703-1.5762.5449-1.5645,1.4238.0469.9375.5098,1.4121,1.3887,1.4238.457-.0117.8086-.1465,1.0547-.4043s.3691-.6152.3691-1.0723v-.0176.0176Z" style="fill:#fff;"/><path d="m112.2891,59.4443v8.3672c.0234,1.3945-.252,2.3906-.8262,2.9883-.6797.7852-1.7578,1.1719-3.2344,1.1602l-1.793-.2109c-.5977-.1406-1.1133-.3281-1.5469-.5625l.1406-1.7754c.8906.5156,1.8457.7852,2.8652.8086.668,0,1.1719-.1582,1.5117-.4746.3516-.3164.5156-.8848.4922-1.7051v-.4746c-.5742.457-1.3242.7031-2.25.7383-1.0547,0-1.8574-.2871-2.4082-.8613-.5273-.5859-.7793-1.3652-.7559-2.3379v-5.6602h2.3906v5.291c-.0234.5508.0762.9727.2988,1.2656.2344.3164.6152.4805,1.1426.4922.5742-.0234.9844-.2109,1.2305-.5625.2578-.3633.375-.8672.3516-1.5117v-4.9746h2.3906v-.0176.0176Z" style="fill:#fff;"/><path d="m119.5488,59.374v1.916l-.7031-.0527c-.5273-.0117-.9375.1465-1.2305.4746-.3164.3984-.4629.9668-.4395,1.7051v4.7461h-2.3906v-6.9609h-1.0371v-1.7227h2.4961l.4395,1.248c.4805-.9141,1.2539-1.3828,2.3203-1.4062l.5449.0527v-.0176.0176Z" style="fill:#fff;"/><path d="m127.9512,67.0908c-.7266.7969-1.7754,1.2012-3.1465,1.2129-1.3711-.0117-2.4141-.416-3.1289-1.2129-.7148-.7852-1.0781-1.875-1.0898-3.2695.0117-1.3945.375-2.4902,1.0898-3.2871s1.7578-1.2012,3.1289-1.2129c1.3711.0117,2.4199.416,3.1465,1.2129.7148.7969,1.0723,1.8926,1.0723,3.2871s-.3574,2.4844-1.0723,3.2695Zm-1.3184-3.2695c-.0469-1.9805-.6562-2.9238-1.8281-2.8301-1.1719-.0938-1.7812.8496-1.8281,2.8301.0117,1.0195.1758,1.7461.4922,2.1797.3281.4336.7734.6445,1.3359.6328.5742.0117,1.0195-.1992,1.3359-.6328.3281-.4336.4922-1.1602.4922-2.1797v-.0176.0176Z" style="fill:#fff;"/><path d="m134.3848,66.4932l-.0703,1.3711c-.375.2578-.9023.4043-1.582.4395-.7383,0-1.248-.2051-1.5293-.6152-.2344-.3398-.3457-.8086-.334-1.4062v-8.7188h-1.0371v-1.7051h3.4277v10.3184c0,.375.1465.5566.4395.5449.2578-.0234.4863-.0996.6855-.2285v-.0176.0176Z" style="fill:#fff;"/><path d="m139.9043,66.4932l-.0703,1.3711c-.375.2578-.9023.4043-1.582.4395-.7383,0-1.248-.2051-1.5293-.6152-.2344-.3398-.3457-.8086-.334-1.4062v-8.7188h-1.0371v-1.7051h3.4277v10.3184c0,.375.1465.5566.4395.5449.2578-.0234.4863-.0996.6855-.2285v-.0176.0176Z" style="fill:#fff;"/><path d="m154.248,67.7939c-.3984.2812-.9316.4336-1.5996.457-.7852,0-1.3008-.3164-1.5469-.9492-.5391.6445-1.3359.9785-2.3906,1.002-.9375-.0117-1.6875-.2637-2.25-.7559-.5508-.5039-.832-1.2188-.8438-2.1445.0117-.9492.3223-1.6758.9316-2.1797.6094-.4922,1.4355-.7383,2.4785-.7383.6914.0117,1.2891.1055,1.793.2812v-.2285c.0234-.5391-.0879-.9492-.334-1.2305-.2812-.293-.7793-.4453-1.4941-.457-.8789,0-1.7461.2109-2.6016.6328v-1.5996c.8555-.375,1.8516-.5684,2.9883-.5801,1.3828-.0117,2.4023.293,3.0586.9141.5273.4922.7852,1.2305.7734,2.2148v3.6738c0,.3516.1406.5273.4219.5273.2695-.0234.5039-.0996.7031-.2285l-.0879,1.3887Zm-3.4277-2.5488v-1.1602c-.3281-.1289-.7441-.1992-1.248-.2109-1.0547.0703-1.5762.5449-1.5645,1.4238.0469.9375.5098,1.4121,1.3887,1.4238.457-.0117.8086-.1465,1.0547-.4043s.3691-.6152.3691-1.0723v-.0176.0176Z" style="fill:#fff;"/><path d="m161.0332,66.0889l-.0527,1.6172c-.5625.375-1.2832.5742-2.1621.5977-.8789-.0234-1.541-.2637-1.9863-.7207-.4336-.4336-.6387-1.1836-.6152-2.25v-4.2012h-1.3711v-1.6875h1.3711v-2.1445l2.3906-.5977v2.7422h2.0215v1.6875h-2.0215v4.166c-.0469.832.2754,1.2539.9668,1.2656.5273-.0352,1.0137-.1934,1.459-.4746v-.0176.0176Z" style="fill:#fff;"/><path d="m169.5586,66.3525h4.9043l-.1406,1.8105h-7.2949v-11.3906h2.5312v9.5801-.0176.0176Z" style="fill:#fff;"/><path d="m179.8242,66.4932l-.0703,1.3711c-.375.2578-.9023.4043-1.582.4395-.7383,0-1.248-.2051-1.5293-.6152-.2344-.3398-.3457-.8086-.334-1.4062v-5.1328h-1.0371v-1.7051h3.4277v6.7324c0,.375.1465.5566.4395.5449.2578-.0234.4863-.0996.6855-.2285v-.0176.0176Zm-2.3555-8.0859c-.8203-.082-1.2715-.5273-1.3535-1.3359.0703-.8086.5156-1.2539,1.3359-1.3359.7969.082,1.2305.5273,1.3008,1.3359-.0586.8086-.4863,1.2539-1.2832,1.3359Z" style="fill:#fff;"/><path d="m189.1406,67.8818c.0234,1.3477-.252,2.3203-.8262,2.918-.6797.7852-1.7637,1.1719-3.252,1.1602l-1.8105-.2109c-.5977-.1406-1.1074-.3281-1.5293-.5625l.1406-1.7402c.8672.4922,1.8223.75,2.8652.7734.668,0,1.1777-.1523,1.5293-.457.3516-.3164.5156-.8672.4922-1.6523v-.7383c-.457.5273-1.1953.8145-2.2148.8613-2.3555-.0703-3.5625-1.4121-3.6211-4.0254.0234-1.5469.4863-2.748,1.3887-3.6035s2.127-1.2891,3.6738-1.3008l1.6699.1582c.5625.0938,1.0605.2227,1.4941.3867v8.0332Zm-2.3906-3.1113v-3.7266l-.8262-.123c-1.6875.082-2.5605,1.125-2.6191,3.1289.0352,1.6523.6387,2.4844,1.8105,2.4961.5391-.0117.9492-.1699,1.2305-.4746.2812-.3164.416-.75.4043-1.3008v-.0176.0176Z" style="fill:#fff;"/><path d="m199.2656,62.5029v5.6602h-2.3906v-5.291c.0234-.5391-.0703-.9609-.2812-1.2656-.2227-.3047-.5918-.4629-1.1074-.4746-.5625.0234-.9668.2051-1.2129.5449-.2578.3633-.375.873-.3516,1.5293v4.957h-2.3906v-12.3047h2.3906v4.2715c.4805-.5039,1.2188-.7734,2.2148-.8086,1.0312,0,1.8223.2812,2.373.8438.5391.5859.791,1.3652.7559,2.3379v-.0176.0176Z" style="fill:#fff;"/><path d="m206.8066,66.0889l-.0527,1.6172c-.5625.375-1.2832.5742-2.1621.5977-.8789-.0234-1.541-.2637-1.9863-.7207-.4336-.4336-.6387-1.1836-.6152-2.25v-4.2012h-1.3711v-1.6875h1.3711v-2.1445l2.3906-.5977v2.7422h2.0215v1.6875h-2.0215v4.166c-.0469.832.2754,1.2539.9668,1.2656.5273-.0352,1.0137-.1934,1.459-.4746v-.0176.0176Z" style="fill:#fff;"/><path d="m216.4746,62.5205v5.6426h-2.3906v-5.2734c.0234-.5391-.0703-.9609-.2812-1.2656-.2344-.3047-.6152-.4629-1.1426-.4746-.5742.0234-.9844.2051-1.2305.5449-.2695.3633-.3926.8672-.3691,1.5117v4.957h-2.3906v-6.9609h-1.0371v-1.7227h2.4609l.4395,1.1426c.5859-.832,1.5176-1.2656,2.7949-1.3008,1.043,0,1.8398.2871,2.3906.8613.5391.5859.791,1.3652.7559,2.3379v-.0176.0176Z" style="fill:#fff;"/><path d="m222.5742,66.4932l-.0703,1.3711c-.375.2578-.9023.4043-1.582.4395-.7383,0-1.248-.2051-1.5293-.6152-.2344-.3398-.3457-.8086-.334-1.4062v-5.1328h-1.0371v-1.7051h3.4277v6.7324c0,.375.1465.5566.4395.5449.2578-.0234.4863-.0996.6855-.2285v-.0176.0176Zm-2.3555-8.0859c-.8203-.082-1.2715-.5273-1.3535-1.3359.0703-.8086.5156-1.2539,1.3359-1.3359.7969.082,1.2305.5273,1.3008,1.3359-.0586.8086-.4863,1.2539-1.2832,1.3359Z" style="fill:#fff;"/><path d="m232.2422,62.5205v5.6426h-2.3906v-5.2734c.0234-.5391-.0703-.9609-.2812-1.2656-.2344-.3047-.6152-.4629-1.1426-.4746-.5742.0234-.9844.2051-1.2305.5449-.2695.3633-.3926.8672-.3691,1.5117v4.957h-2.3906v-6.9609h-1.0371v-1.7227h2.4609l.4395,1.1426c.5859-.832,1.5176-1.2656,2.7949-1.3008,1.043,0,1.8398.2871,2.3906.8613.5391.5859.791,1.3652.7559,2.3379v-.0176.0176Z" style="fill:#fff;"/><path d="m242.1387,67.8818c.0234,1.3477-.252,2.3203-.8262,2.918-.6797.7852-1.7637,1.1719-3.252,1.1602l-1.8105-.2109c-.5977-.1406-1.1074-.3281-1.5293-.5625l.1406-1.7402c.8672.4922,1.8223.75,2.8652.7734.668,0,1.1777-.1523,1.5293-.457.3516-.3164.5156-.8672.4922-1.6523v-.7383c-.457.5273-1.1953.8145-2.2148.8613-2.3555-.0703-3.5625-1.4121-3.6211-4.0254.0234-1.5469.4863-2.748,1.3887-3.6035s2.127-1.2891,3.6738-1.3008l1.6699.1582c.5625.0938,1.0605.2227,1.4941.3867v8.0332Zm-2.3906-3.1113v-3.7266l-.8262-.123c-1.6875.082-2.5605,1.125-2.6191,3.1289.0352,1.6523.6387,2.4844,1.8105,2.4961.5391-.0117.9492-.1699,1.2305-.4746.2812-.3164.416-.75.4043-1.3008v-.0176.0176Z" style="fill:#fff;"/><path d="m256.5352,64.8584c-.0234,1.207-.4336,2.0977-1.2305,2.6719-.7969.5625-1.8164.8438-3.0586.8438-1.2656-.0117-2.4492-.2578-3.5508-.7383l.1055-2.0742c.4922.2695,1.043.4922,1.6523.668.5977.1641,1.1602.252,1.6875.2637.5859,0,1.0664-.1113,1.4414-.334.3633-.2109.5508-.5449.5625-1.002-.0703-.6914-.5508-1.1602-1.4414-1.4062-.8906-.2344-1.7812-.5742-2.6719-1.0195s-1.3711-1.3359-1.4414-2.6719c.0117-1.0547.3809-1.8984,1.1074-2.5312.7266-.6211,1.7871-.9375,3.1816-.9492l1.5469.1582,1.3184.334-.0879,1.9336c-.8555-.3398-1.7285-.5215-2.6191-.5449-1.3477.0352-2.0332.4688-2.0566,1.3008.0703.668.5508,1.125,1.4414,1.3711.8906.2344,1.7812.5801,2.6719,1.0371s1.3711,1.3535,1.4414,2.6895v-.0176.0176Z" style="fill:#fff;"/><path d="m265.4121,67.3896c-.7266.6094-1.7285.9141-3.0059.9141l-1.4062-.123v3.5684h-2.3906v-10.5469h-1.0371v-1.7227h2.4961l.4746,1.1602c.6094-.8672,1.5117-1.3066,2.707-1.3184,1.2188.0117,2.1094.416,2.6719,1.2129.5742.7852.8555,1.8457.8438,3.1816.0234,1.5938-.4277,2.8184-1.3535,3.6738Zm-1.0371-3.6035c.0234-1.7695-.5625-2.6602-1.7578-2.6719-.5508,0-.9727.1934-1.2656.5801-.2578.3398-.375.832-.3516,1.4766v3.4453l1.1953.1406c.832-.0117,1.4062-.2754,1.7227-.791.3281-.5273.4805-1.2539.457-2.1797v-.0176.0176Z" style="fill:#fff;"/><path d="m274.8867,64.5771h-4.5703c.2109,1.3711,1.0078,2.0508,2.3906,2.0391,1.0781-.0234,2.0391-.3105,2.8828-.8613l-.1055,1.6348c-.9141.6094-2.0039.9141-3.2695.9141-1.4062-.0117-2.4785-.4219-3.2168-1.2305-.7266-.7969-1.0957-1.8809-1.1074-3.252.0234-1.4297.4043-2.5371,1.1426-3.3223.7266-.7852,1.7109-1.1836,2.9531-1.1953,1.2188.0234,2.1855.3867,2.9004,1.0898s1.0781,1.6582,1.0898,2.8652c.0469.9141-.3164,1.3535-1.0898,1.3184Zm-1.2305-1.5645c-.0352-1.3594-.5918-2.0566-1.6699-2.0918-.9961-.0352-1.5645.7207-1.7051,2.2676h3.2168c.1172,0,.1699-.0586.1582-.1758v-.0176.0176Z" style="fill:#fff;"/><path d="m284.168,64.5771h-4.5703c.2109,1.3711,1.0078,2.0508,2.3906,2.0391,1.0781-.0234,2.0391-.3105,2.8828-.8613l-.1055,1.6348c-.9141.6094-2.0039.9141-3.2695.9141-1.4062-.0117-2.4785-.4219-3.2168-1.2305-.7266-.7969-1.0957-1.8809-1.1074-3.252.0234-1.4297.4043-2.5371,1.1426-3.3223.7266-.7852,1.7109-1.1836,2.9531-1.1953,1.2188.0234,2.1855.3867,2.9004,1.0898s1.0781,1.6582,1.0898,2.8652c.0469.9141-.3164,1.3535-1.0898,1.3184Zm-1.2305-1.5645c-.0352-1.3594-.5918-2.0566-1.6699-2.0918-.9961-.0352-1.5645.7207-1.7051,2.2676h3.2168c.1172,0,.1699-.0586.1582-.1758v-.0176.0176Z" style="fill:#fff;"/><path d="m295.6465,67.7764c-.4219.293-.9609.4512-1.6172.4746-.75.0234-1.2773-.293-1.582-.9492-.5742.6445-1.377.9785-2.4082,1.002-2.3086-.082-3.5039-1.4531-3.5859-4.1133.0117-1.4766.4277-2.6543,1.248-3.5332s1.9863-1.3301,3.498-1.3535l1.0195.1055v-1.8457h-1.0547v-1.7051h3.4453v10.248c0,.3633.1406.5391.4219.5273.2695-.0234.5039-.0996.7031-.2285l-.0879,1.3711Zm-3.4277-3.0586v-3.7793l-.8262-.0879c-1.6641.0586-2.5137,1.1367-2.5488,3.2344,0,.7148.1406,1.3008.4219,1.7578.293.457.75.6914,1.3711.7031.5625-.0117.9668-.1758,1.2129-.4922.2695-.3164.3926-.7617.3691-1.3359v-.0176.0176Z" style="fill:#fff;"/></g></g></svg>